<svg xmlns="http://www.w3.org/2000/svg" viewBox="0 0 731 896" width="731" height="896"><g stroke="#0e2c38" stroke-width="1" stroke-linejoin="round"><g fill="#207885"><polygon points="20,418 38,422 22,422"/><polygon points="122,20 113,18 110,17"/><polygon points="694,706 715,705 715,707"/><polygon points="170,724 169,726 130,703"/><polygon points="246,81 229,58 234,55"/><polygon points="229,58 230,84 220,60"/><polygon points="230,84 229,58 246,81"/><polygon points="715,698 715,705 694,706"/><polygon points="716,690 715,698 694,706"/><polygon points="702,742 694,710 705,725"/><polygon points="670,689 687,668 694,706"/><polygon points="107,632 97,618 108,618"/><polygon points="107,632 85,642 84,632"/><polygon points="85,626 107,632 84,632"/><polygon points="107,632 85,626 97,618"/><polygon points="97,618 83,592 108,618"/><polygon points="122,579 83,592 82,587"/><polygon points="85,626 83,592 97,618"/><polygon points="19,413 19,410 38,422"/><polygon points="19,413 20,418 19,414"/><polygon points="19,413 38,422 20,418"/><polygon points="56,499 72,496 70,502"/><polygon points="350,66 354,88 336,79"/><polygon points="350,66 370,71 354,88"/><polygon points="259,74 246,81 234,55"/><polygon points="716,690 712,678 716,681"/><polygon points="712,678 716,690 694,706"/><polygon points="687,668 712,678 694,706"/><polygon points="270,881 262,881 259,879"/><polygon points="277,880 286,854 287,876"/><polygon points="670,689 651,655 687,668"/><polygon points="694,710 663,712 694,706"/><polygon points="663,712 670,689 694,706"/><polygon points="444,655 469,613 457,656"/><polygon points="107,632 86,648 85,642"/><polygon points="175,680 150,686 165,675"/><polygon points="175,680 177,713 150,686"/><polygon points="150,686 172,722 170,724"/><polygon points="45,845 59,836 52,847"/><polygon points="68,845 59,836 82,844"/><polygon points="71,331 78,315 94,321"/><polygon points="89,375 83,359 97,352"/><polygon points="89,375 84,395 65,379"/><polygon points="72,496 54,496 51,485"/><polygon points="56,499 54,496 72,496"/><polygon points="38,422 24,426 22,422"/><polygon points="26,430 24,426 38,422"/><polygon points="161,95 143,122 142,90"/><polygon points="373,301 397,310 377,318"/><polygon points="251,43 259,74 234,55"/><polygon points="192,89 196,79 201,78"/><polygon points="212,98 201,78 230,84"/><polygon points="212,98 192,89 201,78"/><polygon points="233,31 227,25 237,26"/><polygon points="713,735 716,731 716,733"/><polygon points="715,709 715,718 694,710"/><polygon points="694,710 715,718 705,725"/><polygon points="706,726 715,718 716,731"/><polygon points="286,854 299,874 287,876"/><polygon points="663,712 629,698 670,689"/><polygon points="629,698 651,655 670,689"/><polygon points="112,544 81,565 77,548"/><polygon points="19,410 22,392 38,422"/><polygon points="22,392 65,407 38,422"/><polygon points="22,392 24,387 65,407"/><polygon points="69,234 79,203 80,240"/><polygon points="24,387 51,366 65,379"/><polygon points="51,366 24,387 26,374"/><polygon points="36,445 26,430 38,422"/><polygon points="36,445 29,443 26,430"/><polygon points="71,331 102,333 97,352"/><polygon points="102,333 71,331 94,321"/><polygon points="113,306 107,318 94,321"/><polygon points="107,318 102,333 94,321"/><polygon points="59,510 58,507 70,502"/><polygon points="98,81 58,83 75,65"/><polygon points="143,122 138,124 142,90"/><polygon points="120,87 138,124 121,128"/><polygon points="378,80 370,71 379,72"/><polygon points="251,43 251,22 262,28"/><polygon points="237,35 233,31 237,26"/><polygon points="262,28 285,19 276,48"/><polygon points="302,29 288,44 294,23"/><polygon points="300,24 302,29 294,23"/><polygon points="307,388 287,389 300,378"/><polygon points="235,111 217,103 230,84"/><polygon points="651,655 620,692 605,669"/><polygon points="629,698 620,692 651,655"/><polygon points="465,605 484,561 495,584"/><polygon points="465,605 469,613 444,655"/><polygon points="85,665 86,662 96,667"/><polygon points="86,662 86,659 96,667"/><polygon points="86,659 86,651 106,660"/><polygon points="369,761 384,777 339,799"/><polygon points="455,688 465,660 503,674"/><polygon points="328,755 341,741 348,760"/><polygon points="328,755 339,799 316,795"/><polygon points="324,732 334,729 341,741"/><polygon points="328,755 324,732 341,741"/><polygon points="197,664 187,711 175,680"/><polygon points="321,636 280,643 310,599"/><polygon points="91,513 62,518 70,502"/><polygon points="62,518 91,513 68,532"/><polygon points="91,513 73,542 68,532"/><polygon points="69,234 50,235 51,226"/><polygon points="47,253 54,261 46,257"/><polygon points="54,261 47,253 58,256"/><polygon points="65,193 55,206 47,194"/><polygon points="51,221 69,234 51,226"/><polygon points="50,235 61,246 48,244"/><polygon points="61,246 50,235 69,234"/><polygon points="32,142 30,135 50,140"/><polygon points="30,135 29,126 50,140"/><polygon points="113,306 92,285 119,291"/><polygon points="92,285 100,271 119,291"/><polygon points="46,270 47,286 45,267"/><polygon points="54,261 46,270 45,267"/><polygon points="46,270 54,261 47,286"/><polygon points="46,262 54,261 45,267"/><polygon points="54,261 46,262 46,257"/><polygon points="271,431 273,438 261,450"/><polygon points="34,451 36,455 29,443"/><polygon points="36,445 34,451 29,443"/><polygon points="57,503 56,499 70,502"/><polygon points="58,507 57,503 70,502"/><polygon points="58,83 54,70 75,65"/><polygon points="43,93 48,100 33,108"/><polygon points="31,83 43,93 33,108"/><polygon points="119,212 87,186 106,172"/><polygon points="87,186 119,212 79,203"/><polygon points="138,124 129,86 142,90"/><polygon points="120,87 129,86 138,124"/><polygon points="101,120 102,98 121,128"/><polygon points="102,98 120,87 121,128"/><polygon points="120,87 102,98 108,85"/><polygon points="102,98 101,120 92,116"/><polygon points="190,236 196,247 176,259"/><polygon points="199,186 191,198 192,192"/><polygon points="101,154 110,166 106,172"/><polygon points="132,163 120,154 136,146"/><polygon points="215,152 227,137 218,157"/><polygon points="145,156 132,163 144,152"/><polygon points="390,293 397,310 373,301"/><polygon points="388,289 390,293 373,301"/><polygon points="390,293 385,282 383,277"/><polygon points="317,281 301,317 292,289"/><polygon points="323,256 317,281 295,259"/><polygon points="270,195 286,172 295,187"/><polygon points="286,172 296,184 295,187"/><polygon points="292,205 270,195 295,187"/><polygon points="370,71 378,83 354,88"/><polygon points="260,44 251,43 262,28"/><polygon points="264,44 260,44 262,28"/><polygon points="244,25 237,35 237,26"/><polygon points="244,25 251,22 251,43"/><polygon points="307,69 303,54 325,45"/><polygon points="307,69 330,47 336,79"/><polygon points="271,399 286,390 301,398"/><polygon points="286,390 287,389 301,398"/><polygon points="214,282 217,295 213,295"/><polygon points="217,295 214,282 217,282"/><polygon points="176,276 193,263 193,283"/><polygon points="194,287 193,283 213,282"/><polygon points="161,95 168,76 183,88"/><polygon points="212,98 211,108 192,89"/><polygon points="423,855 414,849 447,844"/><polygon points="611,648 651,655 605,669"/><polygon points="606,655 611,648 605,669"/><polygon points="620,692 613,693 605,669"/><polygon points="391,631 398,609 444,655"/><polygon points="484,561 501,534 495,584"/><polygon points="501,534 545,564 495,584"/><polygon points="545,564 501,534 529,534"/><polygon points="598,570 571,580 596,560"/><polygon points="598,570 599,574 571,580"/><polygon points="599,574 602,582 571,580"/><polygon points="598,570 602,582 599,574"/><polygon points="374,745 382,739 381,743"/><polygon points="494,707 455,688 503,674"/><polygon points="437,671 444,655 457,656"/><polygon points="376,726 409,735 384,740"/><polygon points="227,695 242,710 223,713"/><polygon points="61,514 59,510 70,502"/><polygon points="62,518 61,514 70,502"/><polygon points="82,580 122,579 82,587"/><polygon points="82,578 81,570 122,579"/><polygon points="61,188 47,194 51,185"/><polygon points="61,188 65,193 47,194"/><polygon points="52,180 61,188 51,185"/><polygon points="53,177 61,188 52,180"/><polygon points="51,221 51,214 69,234"/><polygon points="48,245 47,253 48,244"/><polygon points="61,246 48,245 48,244"/><polygon points="47,253 48,245 58,256"/><polygon points="48,245 61,246 58,256"/><polygon points="78,241 69,234 80,240"/><polygon points="78,241 61,246 69,234"/><polygon points="81,310 113,306 94,321"/><polygon points="81,310 92,285 113,306"/><polygon points="66,314 61,314 52,300"/><polygon points="29,126 55,118 50,140"/><polygon points="29,121 55,118 29,126"/><polygon points="55,118 29,121 33,108"/><polygon points="48,100 55,118 33,108"/><polygon points="57,113 55,118 48,100"/><polygon points="87,167 89,164 90,164"/><polygon points="133,171 128,203 106,172"/><polygon points="128,203 119,212 106,172"/><polygon points="91,56 79,54 88,39"/><polygon points="154,138 167,123 164,138"/><polygon points="173,111 161,95 183,88"/><polygon points="178,114 173,111 183,88"/><polygon points="124,137 120,154 101,138"/><polygon points="120,154 124,137 136,146"/><polygon points="385,282 369,283 383,277"/><polygon points="369,283 388,289 373,301"/><polygon points="369,283 385,282 388,289"/><polygon points="234,284 217,295 217,282"/><polygon points="306,202 294,204 295,187"/><polygon points="294,204 292,205 295,187"/><polygon points="296,184 310,180 295,187"/><polygon points="306,202 310,180 318,189"/><polygon points="310,180 306,202 295,187"/><polygon points="377,89 367,102 354,88"/><polygon points="291,152 286,172 277,156"/><polygon points="239,38 244,25 251,43"/><polygon points="244,25 239,38 237,35"/><polygon points="174,275 171,261 181,263"/><polygon points="176,276 174,275 181,263"/><polygon points="199,293 213,282 213,295"/><polygon points="199,293 194,287 213,282"/><polygon points="132,24 141,25 136,42"/><polygon points="447,844 446,849 429,857"/><polygon points="446,849 455,839 451,858"/><polygon points="601,714 587,744 541,716"/><polygon points="438,728 424,688 455,688"/><polygon points="424,688 437,671 455,688"/><polygon points="324,732 314,666 342,677"/><polygon points="342,677 314,666 321,636"/><polygon points="242,710 225,722 223,713"/><polygon points="225,722 242,710 227,725"/><polygon points="75,544 73,542 91,513"/><polygon points="75,545 75,544 77,548"/><polygon points="78,315 82,313 94,321"/><polygon points="82,313 81,310 94,321"/><polygon points="75,294 81,310 68,314"/><polygon points="75,294 66,314 52,300"/><polygon points="66,314 75,294 68,314"/><polygon points="47,286 75,294 52,300"/><polygon points="75,294 54,261 67,257"/><polygon points="54,261 75,294 47,286"/><polygon points="101,245 122,238 100,271"/><polygon points="122,238 142,259 100,271"/><polygon points="110,71 128,42 142,51"/><polygon points="111,80 120,87 108,85"/><polygon points="111,80 110,71 120,87"/><polygon points="173,111 163,117 161,95"/><polygon points="163,117 167,123 154,138"/><polygon points="117,131 101,120 121,128"/><polygon points="397,310 398,314 377,318"/><polygon points="389,327 382,341 379,328"/><polygon points="389,327 398,314 403,327"/><polygon points="389,327 379,328 377,318"/><polygon points="398,314 389,327 377,318"/><polygon points="382,348 408,345 389,366"/><polygon points="401,368 408,345 413,357"/><polygon points="401,368 410,370 396,399"/><polygon points="289,266 317,281 292,289"/><polygon points="286,270 289,266 292,289"/><polygon points="286,172 306,177 296,184"/><polygon points="306,177 310,180 296,184"/><polygon points="319,208 315,221 306,202"/><polygon points="319,208 306,202 318,189"/><polygon points="319,189 319,208 318,189"/><polygon points="233,123 229,122 235,111"/><polygon points="229,122 233,123 233,133"/><polygon points="582,601 550,609 571,580"/><polygon points="602,582 582,601 571,580"/><polygon points="431,750 440,774 427,792"/><polygon points="460,781 465,779 458,787"/><polygon points="261,635 225,627 243,608"/><polygon points="212,659 209,655 217,641"/><polygon points="227,695 262,681 242,710"/><polygon points="127,41 132,24 136,42"/><polygon points="128,42 127,41 136,42"/><polygon points="127,41 96,33 113,18"/><polygon points="127,41 96,36 96,33"/><polygon points="382,341 407,340 382,348"/><polygon points="389,327 407,340 382,341"/><polygon points="317,281 291,263 295,259"/><polygon points="289,266 291,263 317,281"/><polygon points="321,234 322,228 329,243"/><polygon points="322,228 321,234 315,221"/><polygon points="377,99 368,103 367,102"/><polygon points="370,107 368,103 378,103"/><polygon points="456,735 455,688 486,713"/><polygon points="262,681 263,644 280,643"/><polygon points="261,635 263,644 225,627"/><polygon points="314,666 306,665 321,636"/><polygon points="405,331 389,327 403,327"/><polygon points="405,331 407,340 389,327"/><polygon points="365,268 380,273 369,283"/><polygon points="379,270 380,273 365,268"/><polygon points="369,283 380,273 383,277"/><polygon points="232,279 234,284 217,282"/><polygon points="232,275 232,279 217,282"/><polygon points="241,263 249,257 242,270"/><polygon points="232,275 241,263 242,270"/><polygon points="540,524 548,525 529,534"/><polygon points="532,523 540,524 529,534"/><polygon points="515,521 523,522 519,526"/><polygon points="519,526 523,522 529,534"/><polygon points="523,522 532,523 529,534"/><polygon points="561,528 571,535 560,528"/><polygon points="456,735 438,757 434,748"/><polygon points="438,757 445,766 440,774"/><polygon points="250,670 252,671 227,695"/><polygon points="252,671 262,681 227,695"/><polygon points="139,247 142,259 122,238"/><polygon points="127,237 139,247 122,238"/><polygon points="139,247 127,237 135,223"/><polygon points="284,215 276,219 266,201"/><polygon points="292,205 284,215 270,195"/><polygon points="284,215 266,201 270,195"/><polygon points="284,215 279,222 276,219"/><polygon points="715,709 694,710 694,706"/><polygon points="715,709 694,706 715,707"/></g><g fill="#60aeba"><polygon points="242,877 259,879 260,882"/><polygon points="30,67 15,77 24,65"/><polygon points="104,19 97,26 91,23"/><polygon points="113,18 104,19 110,17"/><polygon points="207,215 214,231 203,238"/><polygon points="229,58 220,60 210,55"/><polygon points="233,31 229,58 210,55"/><polygon points="229,58 233,31 234,55"/><polygon points="270,881 269,851 277,880"/><polygon points="91,686 85,675 96,667"/><polygon points="106,660 107,632 142,653"/><polygon points="172,658 168,652 170,645"/><polygon points="166,776 200,780 190,793"/><polygon points="627,797 607,808 597,774"/><polygon points="88,802 89,843 82,844"/><polygon points="102,839 88,802 109,832"/><polygon points="84,715 84,686 91,686"/><polygon points="84,686 85,675 91,686"/><polygon points="162,582 161,584 126,567"/><polygon points="211,562 258,573 243,608"/><polygon points="207,478 232,515 196,493"/><polygon points="232,515 221,459 272,461"/><polygon points="221,459 232,515 207,478"/><polygon points="88,802 59,836 49,822"/><polygon points="59,836 88,802 82,844"/><polygon points="48,822 42,847 20,842"/><polygon points="48,822 45,845 42,847"/><polygon points="59,836 48,822 49,822"/><polygon points="48,822 59,836 45,845"/><polygon points="118,540 119,547 117,545"/><polygon points="221,459 261,450 272,461"/><polygon points="261,450 221,459 256,416"/><polygon points="115,374 89,375 97,352"/><polygon points="113,334 131,333 115,374"/><polygon points="101,154 106,172 90,164"/><polygon points="214,231 221,255 203,238"/><polygon points="221,255 205,262 203,238"/><polygon points="262,28 259,20 277,14"/><polygon points="142,51 163,50 165,53"/><polygon points="220,60 209,58 210,55"/><polygon points="203,68 209,58 220,60"/><polygon points="299,874 298,846 313,866"/><polygon points="88,802 95,842 89,843"/><polygon points="95,842 88,802 102,839"/><polygon points="131,786 99,748 138,768"/><polygon points="86,659 106,660 96,667"/><polygon points="174,567 202,573 174,599"/><polygon points="202,573 211,562 243,608"/><polygon points="202,573 174,549 211,562"/><polygon points="174,549 202,573 174,567"/><polygon points="130,593 161,584 174,599"/><polygon points="161,584 130,593 126,567"/><polygon points="368,737 341,741 346,731"/><polygon points="334,729 342,677 356,696"/><polygon points="112,544 118,540 117,545"/><polygon points="81,565 112,544 125,562"/><polygon points="45,302 46,298 52,300"/><polygon points="43,306 45,302 52,300"/><polygon points="61,314 43,306 52,300"/><polygon points="56,334 30,349 32,336"/><polygon points="30,349 51,366 29,353"/><polygon points="57,335 30,349 56,334"/><polygon points="57,335 51,366 30,349"/><polygon points="271,431 261,450 256,416"/><polygon points="271,399 271,431 256,416"/><polygon points="58,83 57,113 48,100"/><polygon points="45,73 38,63 47,59"/><polygon points="31,83 23,106 15,91"/><polygon points="15,86 31,83 15,91"/><polygon points="31,83 15,86 15,77"/><polygon points="30,67 31,83 15,77"/><polygon points="79,54 75,65 58,60"/><polygon points="84,39 79,54 77,42"/><polygon points="140,141 144,152 136,146"/><polygon points="233,31 237,35 234,55"/><polygon points="285,19 262,28 277,14"/><polygon points="213,295 218,302 200,302"/><polygon points="217,295 218,302 213,295"/><polygon points="171,261 176,259 181,263"/><polygon points="136,42 156,37 142,51"/><polygon points="201,69 209,58 203,68"/><polygon points="217,103 212,98 230,84"/><polygon points="298,846 306,842 313,866"/><polygon points="292,848 298,846 299,874"/><polygon points="475,852 472,840 482,843"/><polygon points="628,796 627,797 597,774"/><polygon points="635,792 628,796 597,774"/><polygon points="617,741 635,792 597,774"/><polygon points="587,744 617,741 597,774"/><polygon points="373,638 367,673 342,677"/><polygon points="183,533 174,549 174,529"/><polygon points="174,549 183,533 211,562"/><polygon points="183,533 232,515 211,562"/><polygon points="183,533 174,529 196,493"/><polygon points="232,515 183,533 196,493"/><polygon points="232,515 238,543 211,562"/><polygon points="238,543 258,573 211,562"/><polygon points="258,573 238,543 265,563"/><polygon points="280,539 290,508 303,504"/><polygon points="290,508 280,539 269,520"/><polygon points="372,684 367,673 403,673"/><polygon points="369,761 339,799 348,760"/><polygon points="465,660 455,688 457,656"/><polygon points="297,782 328,755 316,795"/><polygon points="367,734 346,731 365,724"/><polygon points="367,734 368,737 346,731"/><polygon points="343,726 334,729 356,696"/><polygon points="334,729 343,726 346,731"/><polygon points="346,731 343,726 365,724"/><polygon points="197,664 172,658 170,645"/><polygon points="198,745 206,779 200,780"/><polygon points="55,206 65,193 79,203"/><polygon points="273,438 271,431 301,398"/><polygon points="131,333 148,335 115,374"/><polygon points="100,349 115,374 97,352"/><polygon points="100,349 113,334 115,374"/><polygon points="113,334 127,322 131,333"/><polygon points="58,60 54,70 47,59"/><polygon points="54,70 45,73 47,59"/><polygon points="75,65 54,70 58,60"/><polygon points="87,167 87,186 74,182"/><polygon points="106,172 87,167 90,164"/><polygon points="82,187 87,186 79,203"/><polygon points="87,186 82,187 74,182"/><polygon points="129,86 142,51 142,90"/><polygon points="196,247 190,236 203,238"/><polygon points="190,236 207,215 203,238"/><polygon points="117,162 110,166 101,154"/><polygon points="110,166 117,162 127,165"/><polygon points="120,154 117,162 101,154"/><polygon points="117,162 120,154 127,165"/><polygon points="140,141 154,138 144,152"/><polygon points="330,47 341,53 336,79"/><polygon points="256,21 259,20 262,28"/><polygon points="251,22 256,21 262,28"/><polygon points="283,15 285,19 277,14"/><polygon points="286,390 271,399 279,334"/><polygon points="287,389 286,390 279,334"/><polygon points="218,302 214,315 200,302"/><polygon points="221,303 218,302 217,295"/><polygon points="214,315 221,303 226,307"/><polygon points="221,303 214,315 218,302"/><polygon points="171,261 157,252 176,259"/><polygon points="157,252 171,261 153,285"/><polygon points="156,37 159,43 142,51"/><polygon points="168,76 161,95 142,90"/><polygon points="142,51 168,76 142,90"/><polygon points="168,76 142,51 165,53"/><polygon points="217,103 211,108 212,98"/><polygon points="211,108 178,114 192,89"/><polygon points="178,114 211,108 202,124"/><polygon points="323,854 306,842 323,844"/><polygon points="306,842 320,860 313,866"/><polygon points="323,854 320,860 306,842"/><polygon points="480,827 472,840 455,839"/><polygon points="469,850 472,840 475,852"/><polygon points="643,615 637,614 635,613"/><polygon points="666,619 663,623 660,617"/><polygon points="663,623 658,621 660,617"/><polygon points="476,648 465,660 457,656"/><polygon points="383,650 414,671 403,673"/><polygon points="280,539 255,531 269,520"/><polygon points="238,543 255,531 265,563"/><polygon points="255,531 280,539 265,563"/><polygon points="372,684 367,685 367,673"/><polygon points="367,673 367,685 342,677"/><polygon points="455,839 458,787 478,805"/><polygon points="291,769 291,739 316,743"/><polygon points="328,755 291,769 316,743"/><polygon points="291,769 328,755 297,782"/><polygon points="291,739 291,732 316,743"/><polygon points="242,710 291,732 259,744"/><polygon points="174,599 217,641 170,645"/><polygon points="158,771 161,769 166,776"/><polygon points="154,773 158,771 166,776"/><polygon points="72,255 90,269 67,257"/><polygon points="79,253 90,269 72,255"/><polygon points="92,285 90,269 100,271"/><polygon points="36,325 56,334 32,336"/><polygon points="36,325 37,323 56,334"/><polygon points="132,319 148,335 131,333"/><polygon points="127,322 132,319 131,333"/><polygon points="176,276 182,296 168,284"/><polygon points="182,296 176,276 193,283"/><polygon points="271,399 255,328 279,334"/><polygon points="232,337 255,328 271,399"/><polygon points="38,63 39,78 30,67"/><polygon points="45,73 39,78 38,63"/><polygon points="45,92 58,83 48,100"/><polygon points="45,92 39,78 45,73"/><polygon points="129,86 110,71 142,51"/><polygon points="191,198 181,182 192,192"/><polygon points="163,196 181,182 191,198"/><polygon points="234,284 267,267 270,314"/><polygon points="221,303 234,284 226,307"/><polygon points="234,284 221,303 217,295"/><polygon points="237,35 239,38 234,55"/><polygon points="219,321 214,315 226,307"/><polygon points="174,275 176,276 168,284"/><polygon points="171,261 174,275 153,285"/><polygon points="199,293 213,295 200,302"/><polygon points="142,51 160,45 163,50"/><polygon points="159,43 160,45 142,51"/><polygon points="301,791 297,782 316,795"/><polygon points="326,823 309,810 316,795"/><polygon points="309,810 301,791 316,795"/><polygon points="480,827 482,834 472,840"/><polygon points="446,849 447,844 455,839"/><polygon points="417,810 414,849 409,845"/><polygon points="550,609 545,564 571,580"/><polygon points="545,564 550,609 495,584"/><polygon points="601,714 617,741 587,744"/><polygon points="658,621 657,628 654,630"/><polygon points="663,623 657,628 658,621"/><polygon points="550,609 510,654 495,584"/><polygon points="510,654 469,613 495,584"/><polygon points="510,654 476,648 469,613"/><polygon points="545,564 562,559 571,580"/><polygon points="74,756 76,748 75,755"/><polygon points="241,524 238,543 232,515"/><polygon points="202,573 225,627 174,599"/><polygon points="225,627 217,641 174,599"/><polygon points="225,627 202,573 243,608"/><polygon points="209,655 197,664 170,645"/><polygon points="217,641 209,655 170,645"/><polygon points="75,544 91,513 112,544"/><polygon points="82,187 67,190 74,182"/><polygon points="65,193 67,190 79,203"/><polygon points="67,190 82,187 79,203"/><polygon points="90,269 75,294 67,257"/><polygon points="75,294 90,269 92,285"/><polygon points="61,314 38,319 43,306"/><polygon points="38,319 61,314 56,334"/><polygon points="37,323 38,319 56,334"/><polygon points="37,79 43,93 31,83"/><polygon points="37,79 31,83 30,67"/><polygon points="39,78 37,79 30,67"/><polygon points="45,92 37,79 39,78"/><polygon points="149,169 144,181 133,171"/><polygon points="144,181 128,203 133,171"/><polygon points="142,259 157,252 153,285"/><polygon points="145,156 153,160 149,169"/><polygon points="154,157 153,160 145,156"/><polygon points="157,150 154,157 144,152"/><polygon points="157,150 154,138 159,146"/><polygon points="408,345 401,368 389,366"/><polygon points="401,368 396,399 389,366"/><polygon points="325,830 309,810 326,823"/><polygon points="482,834 482,839 472,840"/><polygon points="480,824 455,839 478,805"/><polygon points="480,824 480,827 455,839"/><polygon points="560,528 562,559 548,525"/><polygon points="212,659 227,695 197,664"/><polygon points="132,319 135,316 148,335"/><polygon points="135,316 166,315 148,335"/><polygon points="135,316 166,298 166,315"/><polygon points="234,284 233,308 226,307"/><polygon points="239,311 233,308 234,284"/><polygon points="90,269 91,253 100,271"/><polygon points="91,253 90,269 79,253"/><polygon points="562,559 571,535 576,538"/><polygon points="560,528 571,535 562,559"/><polygon points="306,665 262,681 280,643"/><polygon points="306,665 280,643 321,636"/><polygon points="174,306 168,296 182,296"/><polygon points="166,298 169,313 166,315"/><polygon points="174,306 169,313 166,298"/><polygon points="232,325 255,328 232,337"/><polygon points="232,325 254,324 255,328"/><polygon points="239,311 232,325 233,308"/><polygon points="219,321 232,325 225,330"/><polygon points="232,325 219,321 226,307"/><polygon points="233,308 232,325 226,307"/><polygon points="142,259 145,250 157,252"/><polygon points="232,279 242,270 234,284"/><polygon points="232,279 232,275 242,270"/><polygon points="229,333 232,337 225,330"/><polygon points="232,325 229,333 225,330"/><polygon points="229,333 232,325 232,337"/><polygon points="139,247 145,250 142,259"/></g><g fill="#e3f1f3"><polygon points="174,529 114,515 196,493"/><polygon points="114,515 127,424 196,493"/><polygon points="91,686 106,660 130,703"/><polygon points="106,660 91,686 96,667"/><polygon points="174,529 125,538 114,515"/><polygon points="704,667 706,670 687,668"/><polygon points="269,851 259,879 242,877"/><polygon points="84,715 91,686 130,703"/><polygon points="126,567 122,579 125,562"/><polygon points="221,459 207,478 213,457"/><polygon points="207,478 152,415 213,457"/><polygon points="127,424 152,415 196,493"/><polygon points="152,415 207,478 196,493"/><polygon points="115,374 152,415 127,424"/><polygon points="211,399 152,415 179,383"/><polygon points="152,415 211,399 213,457"/><polygon points="211,399 221,459 213,457"/><polygon points="221,459 211,399 256,416"/><polygon points="84,395 115,374 127,424"/><polygon points="95,456 46,470 45,466"/><polygon points="184,21 163,50 174,21"/><polygon points="165,53 163,50 184,21"/><polygon points="196,27 208,23 210,55"/><polygon points="196,27 184,21 192,20"/><polygon points="165,53 196,27 210,55"/><polygon points="196,27 165,53 184,21"/><polygon points="208,23 217,24 210,55"/><polygon points="695,656 704,667 687,668"/><polygon points="706,670 712,678 687,668"/><polygon points="687,668 651,655 685,645"/><polygon points="232,851 269,851 234,869"/><polygon points="29,811 30,811 20,842"/><polygon points="162,582 174,567 174,599"/><polygon points="161,584 162,582 174,599"/><polygon points="30,811 48,822 20,842"/><polygon points="48,822 30,811 35,804"/><polygon points="161,769 163,745 167,745"/><polygon points="125,538 118,540 114,515"/><polygon points="206,369 211,399 179,383"/><polygon points="92,444 65,407 84,395"/><polygon points="92,444 95,456 45,466"/><polygon points="40,458 92,444 45,466"/><polygon points="199,186 183,175 218,157"/><polygon points="211,399 271,399 256,416"/><polygon points="206,369 271,399 211,399"/><polygon points="209,58 165,53 210,55"/><polygon points="196,79 192,89 183,88"/><polygon points="198,21 196,27 192,20"/><polygon points="693,653 687,668 685,645"/><polygon points="693,653 695,656 687,668"/><polygon points="57,794 88,802 49,822"/><polygon points="82,728 99,748 81,730"/><polygon points="99,748 84,715 130,703"/><polygon points="99,748 82,728 84,715"/><polygon points="232,848 236,837 269,851"/><polygon points="232,851 232,848 269,851"/><polygon points="243,826 247,818 269,851"/><polygon points="236,837 241,829 269,851"/><polygon points="241,829 243,826 269,851"/><polygon points="174,549 125,538 174,529"/><polygon points="125,538 174,549 125,562"/><polygon points="174,549 174,567 125,562"/><polygon points="130,593 122,579 126,567"/><polygon points="269,520 232,515 272,461"/><polygon points="249,812 250,800 273,794"/><polygon points="161,769 144,771 157,742"/><polygon points="173,744 161,769 167,745"/><polygon points="161,769 173,744 183,744"/><polygon points="119,547 112,544 117,545"/><polygon points="112,544 119,547 125,562"/><polygon points="177,335 225,330 206,369"/><polygon points="92,444 36,445 65,407"/><polygon points="36,445 92,444 40,458"/><polygon points="102,333 107,318 113,334"/><polygon points="164,138 183,175 159,146"/><polygon points="164,138 202,124 205,132"/><polygon points="211,143 164,138 205,132"/><polygon points="164,138 211,143 183,175"/><polygon points="209,58 201,69 165,53"/><polygon points="196,27 203,21 208,23"/><polygon points="198,21 203,21 196,27"/><polygon points="292,848 286,854 269,851"/><polygon points="455,839 447,844 425,806"/><polygon points="651,655 679,638 685,645"/><polygon points="675,635 679,638 651,655"/><polygon points="47,799 57,794 49,822"/><polygon points="70,780 99,748 88,802"/><polygon points="328,474 334,422 341,430"/><polygon points="348,438 328,474 341,430"/><polygon points="328,474 348,438 350,441"/><polygon points="357,452 328,474 350,441"/><polygon points="290,508 269,520 272,461"/><polygon points="273,794 281,775 297,782"/><polygon points="144,771 154,773 138,783"/><polygon points="91,513 95,456 114,515"/><polygon points="91,513 72,496 95,456"/><polygon points="273,438 328,474 272,461"/><polygon points="328,474 273,438 334,422"/><polygon points="273,438 301,398 334,422"/><polygon points="164,367 206,369 179,383"/><polygon points="164,367 177,335 206,369"/><polygon points="164,367 148,335 177,335"/><polygon points="148,335 164,367 115,374"/><polygon points="152,415 164,367 179,383"/><polygon points="164,367 152,415 115,374"/><polygon points="232,337 271,399 206,369"/><polygon points="225,330 232,337 206,369"/><polygon points="100,349 102,333 113,334"/><polygon points="107,318 127,322 113,334"/><polygon points="131,319 127,322 113,306"/><polygon points="127,322 107,318 113,306"/><polygon points="183,175 215,152 218,157"/><polygon points="211,143 215,152 183,175"/><polygon points="230,189 199,186 218,157"/><polygon points="214,315 177,335 200,302"/><polygon points="163,24 156,37 151,25"/><polygon points="159,43 163,24 174,21"/><polygon points="163,24 159,43 156,37"/><polygon points="201,69 168,76 165,53"/><polygon points="168,76 201,69 196,79"/><polygon points="283,821 292,848 269,851"/><polygon points="283,821 248,816 249,814"/><polygon points="249,812 283,821 249,814"/><polygon points="283,821 249,812 273,794"/><polygon points="247,818 283,821 269,851"/><polygon points="248,816 283,821 247,818"/><polygon points="650,644 644,636 654,630"/><polygon points="650,644 675,635 651,655"/><polygon points="650,644 654,630 675,635"/><polygon points="637,614 643,615 644,636"/><polygon points="398,609 391,631 391,603"/><polygon points="367,673 383,650 403,673"/><polygon points="48,822 44,800 49,822"/><polygon points="44,800 47,799 49,822"/><polygon points="57,794 66,787 88,802"/><polygon points="70,780 75,755 99,748"/><polygon points="367,685 372,684 366,699"/><polygon points="382,739 376,726 384,740"/><polygon points="291,739 291,769 259,744"/><polygon points="291,769 281,775 259,744"/><polygon points="281,775 291,769 297,782"/><polygon points="291,732 291,739 259,744"/><polygon points="183,744 195,745 200,780"/><polygon points="158,771 144,771 161,769"/><polygon points="158,771 154,773 144,771"/><polygon points="194,287 182,296 193,283"/><polygon points="279,334 255,328 272,317"/><polygon points="181,182 149,169 183,175"/><polygon points="219,321 225,330 177,335"/><polygon points="214,315 219,321 177,335"/><polygon points="182,296 199,293 200,302"/><polygon points="199,293 182,296 194,287"/><polygon points="163,50 160,45 174,21"/><polygon points="160,45 159,43 174,21"/><polygon points="286,804 283,821 273,794"/><polygon points="286,804 273,794 297,782"/><polygon points="301,791 286,804 297,782"/><polygon points="309,810 286,804 301,791"/><polygon points="447,844 417,810 425,806"/><polygon points="626,612 622,640 616,612"/><polygon points="622,640 626,612 635,613"/><polygon points="637,614 622,640 635,613"/><polygon points="622,640 611,648 604,642"/><polygon points="622,640 650,644 651,655"/><polygon points="622,640 599,635 616,612"/><polygon points="657,628 663,623 672,628"/><polygon points="675,635 657,628 672,628"/><polygon points="654,630 657,628 675,635"/><polygon points="39,802 48,822 35,804"/><polygon points="39,802 44,800 48,822"/><polygon points="69,782 70,780 88,802"/><polygon points="66,787 69,782 88,802"/><polygon points="99,748 76,748 81,730"/><polygon points="75,755 76,748 99,748"/><polygon points="241,524 255,531 238,543"/><polygon points="255,531 241,524 269,520"/><polygon points="148,335 166,315 177,335"/><polygon points="149,169 153,160 183,175"/><polygon points="153,160 154,157 183,175"/><polygon points="183,175 157,150 159,146"/><polygon points="154,157 157,150 183,175"/><polygon points="241,241 234,248 214,231"/><polygon points="283,821 288,813 306,842"/><polygon points="288,813 309,810 306,842"/><polygon points="286,804 288,813 283,821"/><polygon points="309,810 288,813 286,804"/><polygon points="669,622 670,625 663,623"/><polygon points="250,800 254,780 273,794"/><polygon points="254,780 281,775 273,794"/><polygon points="254,780 254,775 281,775"/><polygon points="166,298 135,316 153,285"/><polygon points="135,316 113,306 119,291"/><polygon points="135,316 131,319 113,306"/><polygon points="177,335 174,306 200,302"/><polygon points="174,306 182,296 200,302"/><polygon points="254,324 240,312 270,314"/><polygon points="254,324 270,314 272,317"/><polygon points="255,328 254,324 272,317"/><polygon points="157,196 144,181 149,169"/><polygon points="135,223 136,212 166,224"/><polygon points="141,285 142,259 153,285"/><polygon points="142,259 141,285 119,291"/><polygon points="135,316 141,285 153,285"/><polygon points="141,285 135,316 119,291"/><polygon points="168,284 168,296 153,285"/><polygon points="168,296 166,298 153,285"/><polygon points="166,315 169,313 177,335"/><polygon points="169,313 174,306 177,335"/><polygon points="157,252 145,250 166,224"/><polygon points="145,250 135,223 166,224"/><polygon points="230,189 233,194 207,215"/><polygon points="145,250 139,247 135,223"/><polygon points="243,222 241,241 214,231"/><polygon points="243,222 214,231 207,215"/><polygon points="233,194 244,220 207,215"/><polygon points="244,220 243,222 207,215"/></g><g fill="#4493a0"><polygon points="92,31 82,28 91,23"/><polygon points="144,639 174,599 170,645"/><polygon points="106,660 150,686 130,703"/><polygon points="110,17 104,19 91,23"/><polygon points="96,33 104,19 113,18"/><polygon points="97,26 104,19 96,33"/><polygon points="92,31 96,26 96,33"/><polygon points="97,26 96,26 91,23"/><polygon points="96,26 92,31 91,23"/><polygon points="85,675 85,665 96,667"/><polygon points="84,395 65,407 65,379"/><polygon points="370,71 350,66 361,62"/><polygon points="230,84 203,68 220,60"/><polygon points="201,78 203,68 230,84"/><polygon points="259,879 262,881 260,882"/><polygon points="607,808 627,797 604,819"/><polygon points="88,802 114,824 109,832"/><polygon points="86,648 107,632 106,660"/><polygon points="52,847 59,836 65,846"/><polygon points="59,836 68,845 65,846"/><polygon points="84,395 89,375 115,374"/><polygon points="127,165 133,171 106,172"/><polygon points="713,735 706,726 716,731"/><polygon points="715,718 706,726 705,725"/><polygon points="114,807 88,802 131,786"/><polygon points="88,802 114,807 114,824"/><polygon points="95,842 102,839 99,841"/><polygon points="99,748 157,742 138,768"/><polygon points="144,639 130,593 174,599"/><polygon points="157,742 144,771 138,768"/><polygon points="122,579 81,565 125,562"/><polygon points="47,194 55,206 45,203"/><polygon points="69,234 55,206 79,203"/><polygon points="205,262 196,247 203,238"/><polygon points="176,259 196,247 181,263"/><polygon points="46,298 47,286 52,300"/><polygon points="29,353 51,366 26,374"/><polygon points="271,431 271,399 301,398"/><polygon points="23,106 14,109 14,105"/><polygon points="23,106 19,112 14,109"/><polygon points="15,91 23,106 14,105"/><polygon points="79,54 84,39 88,39"/><polygon points="144,152 132,163 136,146"/><polygon points="132,163 149,169 133,171"/><polygon points="369,66 370,71 361,62"/><polygon points="369,66 371,67 370,71"/><polygon points="320,43 303,54 311,40"/><polygon points="303,54 320,43 325,45"/><polygon points="287,389 279,334 300,378"/><polygon points="301,398 287,389 307,388"/><polygon points="201,69 203,68 201,78"/><polygon points="196,79 201,69 201,78"/><polygon points="292,848 299,874 286,854"/><polygon points="373,638 372,584 391,603"/><polygon points="373,638 342,677 321,636"/><polygon points="391,631 373,638 391,603"/><polygon points="469,613 465,605 495,584"/><polygon points="86,651 86,648 106,660"/><polygon points="364,706 343,726 356,696"/><polygon points="343,726 364,706 365,724"/><polygon points="334,729 324,732 342,677"/><polygon points="197,664 175,680 172,658"/><polygon points="138,783 154,773 141,788"/><polygon points="154,798 154,773 166,776"/><polygon points="72,496 91,513 70,502"/><polygon points="196,247 193,263 181,263"/><polygon points="193,263 196,247 205,262"/><polygon points="261,450 273,438 272,461"/><polygon points="45,73 54,70 58,83"/><polygon points="87,186 87,167 106,172"/><polygon points="166,224 190,236 176,259"/><polygon points="110,166 127,165 106,172"/><polygon points="120,154 101,154 101,138"/><polygon points="192,89 178,114 183,88"/><polygon points="154,138 164,138 159,146"/><polygon points="145,156 149,169 132,163"/><polygon points="370,71 376,69 379,72"/><polygon points="371,67 376,69 370,71"/><polygon points="350,66 356,60 361,62"/><polygon points="356,60 345,55 361,62"/><polygon points="345,55 356,60 350,66"/><polygon points="341,53 350,66 336,79"/><polygon points="341,53 345,55 350,66"/><polygon points="330,47 307,69 325,45"/><polygon points="288,44 287,20 294,23"/><polygon points="285,19 287,20 288,44"/><polygon points="303,54 304,37 311,40"/><polygon points="156,37 141,25 151,25"/><polygon points="136,42 141,25 156,37"/><polygon points="325,842 323,854 323,844"/><polygon points="339,799 326,823 316,795"/><polygon points="472,840 469,850 455,839"/><polygon points="455,839 469,850 451,858"/><polygon points="550,664 560,661 584,686"/><polygon points="465,660 476,648 503,674"/><polygon points="469,613 476,648 457,656"/><polygon points="548,525 545,564 529,534"/><polygon points="342,677 367,685 356,696"/><polygon points="367,685 366,699 356,696"/><polygon points="455,688 437,671 457,656"/><polygon points="227,695 223,713 187,711"/><polygon points="197,664 227,695 187,711"/><polygon points="198,745 216,752 217,768"/><polygon points="69,234 51,214 55,206"/><polygon points="55,206 51,214 45,203"/><polygon points="14,109 17,116 14,118"/><polygon points="19,112 17,116 14,109"/><polygon points="43,93 45,92 48,100"/><polygon points="79,54 91,56 75,65"/><polygon points="110,71 129,86 120,87"/><polygon points="154,157 145,156 144,152"/><polygon points="181,182 199,186 192,192"/><polygon points="124,137 140,141 136,146"/><polygon points="124,137 125,134 140,141"/><polygon points="239,38 251,43 234,55"/><polygon points="397,823 417,810 409,845"/><polygon points="611,648 622,640 651,655"/><polygon points="601,714 541,716 584,686"/><polygon points="476,648 510,654 503,674"/><polygon points="562,559 545,564 548,525"/><polygon points="562,559 576,538 594,551"/><polygon points="595,555 562,559 594,551"/><polygon points="562,559 595,555 596,560"/><polygon points="571,580 562,559 596,560"/><polygon points="424,688 376,726 403,673"/><polygon points="75,544 112,544 77,548"/><polygon points="81,310 82,313 78,315"/><polygon points="81,310 75,294 92,285"/><polygon points="100,271 142,259 119,291"/><polygon points="128,42 136,42 142,51"/><polygon points="154,138 157,150 144,152"/><polygon points="234,284 242,270 267,267"/><polygon points="472,840 482,839 482,843"/><polygon points="250,670 212,659 217,641"/><polygon points="212,659 250,670 227,695"/><polygon points="209,655 212,659 197,664"/><polygon points="262,681 291,732 242,710"/><polygon points="132,24 127,41 128,22"/><polygon points="127,41 122,20 128,22"/><polygon points="122,20 127,41 113,18"/><polygon points="407,340 408,345 382,348"/><polygon points="456,735 438,728 455,688"/><polygon points="438,728 456,735 434,748"/><polygon points="263,644 250,670 217,641"/><polygon points="225,627 263,644 217,641"/><polygon points="168,296 174,306 166,298"/><polygon points="98,246 101,245 100,271"/><polygon points="91,253 98,246 100,271"/><polygon points="438,757 431,750 434,748"/><polygon points="438,757 440,774 431,750"/></g><g fill="#0b2f39"><polygon points="679,784 667,763 692,777"/><polygon points="667,763 669,760 692,777"/><polygon points="307,388 300,378 335,327"/><polygon points="182,800 172,800 190,793"/><polygon points="160,669 150,686 142,653"/><polygon points="142,791 141,788 147,795"/><polygon points="662,787 667,763 679,784"/><polygon points="697,768 697,773 692,777"/><polygon points="669,760 697,768 692,777"/><polygon points="300,378 304,325 335,327"/><polygon points="291,878 285,879 287,876"/><polygon points="154,798 166,776 172,800"/><polygon points="144,639 168,652 142,653"/><polygon points="68,845 82,844 65,846"/><polygon points="42,847 45,845 52,847"/><polygon points="246,106 259,131 248,134"/><polygon points="667,763 655,788 645,789"/><polygon points="662,787 655,788 667,763"/><polygon points="395,401 396,399 401,405"/><polygon points="396,399 427,382 401,405"/><polygon points="716,695 715,698 716,690"/><polygon points="597,774 607,808 565,804"/><polygon points="192,800 182,800 190,793"/><polygon points="82,150 101,154 90,164"/><polygon points="311,117 339,118 338,125"/><polygon points="253,138 259,155 250,146"/><polygon points="562,820 554,803 565,804"/><polygon points="549,806 554,803 559,821"/><polygon points="554,803 562,820 559,821"/><polygon points="629,738 667,763 645,789"/><polygon points="635,792 629,738 645,789"/><polygon points="418,426 441,435 446,464"/><polygon points="380,450 381,431 418,426"/><polygon points="541,716 532,774 519,745"/><polygon points="479,525 418,527 421,503"/><polygon points="484,561 418,527 479,525"/><polygon points="372,584 397,597 391,603"/><polygon points="384,777 381,746 388,780"/><polygon points="339,799 345,821 335,821"/><polygon points="98,81 75,65 98,76"/><polygon points="337,210 335,197 353,198"/><polygon points="325,105 339,118 311,117"/><polygon points="253,138 253,135 259,131"/><polygon points="532,774 509,822 478,805"/><polygon points="592,820 607,808 604,819"/><polygon points="414,849 410,847 409,845"/><polygon points="645,731 629,698 663,712"/><polygon points="629,698 645,731 629,738"/><polygon points="418,426 388,421 401,405"/><polygon points="381,431 388,421 418,426"/><polygon points="388,421 395,401 401,405"/><polygon points="423,491 418,426 446,464"/><polygon points="357,452 366,459 357,462"/><polygon points="442,431 441,435 418,426"/><polygon points="328,474 333,487 303,504"/><polygon points="350,481 328,474 357,462"/><polygon points="328,474 350,481 333,487"/><polygon points="332,574 291,559 350,535"/><polygon points="352,535 332,574 350,535"/><polygon points="372,584 332,574 352,535"/><polygon points="384,777 369,761 381,746"/><polygon points="350,822 339,799 360,822"/><polygon points="350,822 345,821 339,799"/><polygon points="381,746 409,735 388,780"/><polygon points="384,740 409,735 381,746"/><polygon points="202,799 192,800 190,793"/><polygon points="51,221 51,226 45,203"/><polygon points="27,113 23,106 33,108"/><polygon points="62,139 52,143 50,140"/><polygon points="52,143 37,150 50,140"/><polygon points="62,137 62,139 50,140"/><polygon points="62,137 57,113 92,116"/><polygon points="82,150 62,137 92,116"/><polygon points="62,139 62,137 82,150"/><polygon points="67,176 87,167 74,182"/><polygon points="102,98 98,81 108,85"/><polygon points="58,83 102,98 92,116"/><polygon points="125,134 138,124 143,132"/><polygon points="138,124 125,134 121,128"/><polygon points="304,325 304,323 335,327"/><polygon points="304,323 301,317 335,327"/><polygon points="301,317 317,281 335,327"/><polygon points="378,93 377,95 377,89"/><polygon points="306,99 325,105 311,117"/><polygon points="291,120 306,99 311,117"/><polygon points="306,99 276,91 304,82"/><polygon points="306,99 291,120 276,91"/><polygon points="354,88 330,84 336,79"/><polygon points="330,84 306,99 304,82"/><polygon points="354,106 330,84 354,88"/><polygon points="253,138 270,134 259,155"/><polygon points="270,134 253,138 259,131"/><polygon points="300,143 291,120 311,117"/><polygon points="329,243 359,230 362,238"/><polygon points="271,66 271,82 259,74"/><polygon points="286,69 279,64 288,44"/><polygon points="286,69 303,54 301,66"/><polygon points="286,69 301,66 304,82"/><polygon points="276,91 286,69 304,82"/><polygon points="271,82 286,69 276,91"/><polygon points="286,69 271,66 279,64"/><polygon points="271,66 286,69 271,82"/><polygon points="330,84 307,69 336,79"/><polygon points="326,823 339,799 335,821"/><polygon points="499,822 494,823 478,805"/><polygon points="509,822 499,822 478,805"/><polygon points="519,822 532,774 528,821"/><polygon points="519,822 509,822 532,774"/><polygon points="549,821 549,806 559,821"/><polygon points="549,821 539,821 549,806"/><polygon points="529,822 532,821 539,821"/><polygon points="549,806 532,821 528,821"/><polygon points="539,821 532,821 549,806"/><polygon points="607,808 582,820 565,804"/><polygon points="592,820 582,820 607,808"/><polygon points="596,658 560,661 573,636"/><polygon points="584,686 596,658 605,669"/><polygon points="555,632 550,664 536,664"/><polygon points="580,620 572,636 555,632"/><polygon points="613,693 584,686 605,669"/><polygon points="423,492 423,491 446,464"/><polygon points="423,492 479,525 421,503"/><polygon points="366,459 365,447 380,450"/><polygon points="357,452 365,447 366,459"/><polygon points="380,450 365,447 381,431"/><polygon points="504,722 541,716 519,745"/><polygon points="526,690 509,688 520,670"/><polygon points="526,690 520,670 536,664"/><polygon points="504,722 526,690 541,716"/><polygon points="526,690 504,722 509,688"/><polygon points="550,664 526,690 536,664"/><polygon points="526,690 550,664 541,716"/><polygon points="398,609 465,605 444,655"/><polygon points="397,597 398,609 391,603"/><polygon points="465,605 398,609 402,583"/><polygon points="409,571 465,605 402,583"/><polygon points="501,534 484,561 479,525"/><polygon points="412,558 484,561 412,559"/><polygon points="412,558 418,527 484,561"/><polygon points="369,761 374,745 381,746"/><polygon points="374,745 381,743 381,746"/><polygon points="382,739 374,745 368,737"/><polygon points="427,792 445,784 425,806"/><polygon points="494,707 504,722 486,713"/><polygon points="504,722 494,707 509,688"/><polygon points="437,671 414,671 444,655"/><polygon points="224,746 224,760 219,754"/><polygon points="216,752 224,746 219,754"/><polygon points="224,760 254,775 217,768"/><polygon points="254,775 224,760 259,744"/><polygon points="254,775 224,794 217,768"/><polygon points="216,752 214,737 224,746"/><polygon points="214,737 198,745 199,737"/><polygon points="51,214 51,221 45,203"/><polygon points="79,253 78,241 80,240"/><polygon points="78,241 79,253 72,255"/><polygon points="55,118 62,137 50,140"/><polygon points="62,137 55,118 57,113"/><polygon points="89,164 82,150 90,164"/><polygon points="75,65 91,56 98,76"/><polygon points="181,217 190,236 166,224"/><polygon points="163,196 181,217 166,224"/><polygon points="181,217 163,196 191,198"/><polygon points="190,236 181,217 207,215"/><polygon points="181,217 191,198 207,215"/><polygon points="420,369 427,382 424,378"/><polygon points="396,399 410,370 424,378"/><polygon points="369,283 373,301 335,327"/><polygon points="317,281 369,283 335,327"/><polygon points="300,143 334,144 334,161"/><polygon points="368,248 329,243 362,238"/><polygon points="367,102 354,106 354,88"/><polygon points="270,134 285,140 277,156"/><polygon points="357,220 359,230 329,243"/><polygon points="217,138 221,123 227,137"/><polygon points="494,823 483,823 478,805"/><polygon points="442,858 443,859 429,857"/><polygon points="441,856 442,858 429,857"/><polygon points="443,859 446,849 451,858"/><polygon points="446,849 442,858 441,856"/><polygon points="442,858 446,849 443,859"/><polygon points="572,820 562,820 565,804"/><polygon points="582,820 572,820 565,804"/><polygon points="339,799 370,822 360,822"/><polygon points="384,777 370,822 339,799"/><polygon points="370,822 384,777 388,780"/><polygon points="603,643 599,635 604,642"/><polygon points="599,635 596,658 573,636"/><polygon points="599,635 603,643 596,658"/><polygon points="550,609 580,620 555,632"/><polygon points="601,714 629,698 629,738"/><polygon points="617,741 601,714 629,738"/><polygon points="423,492 485,481 479,525"/><polygon points="485,481 423,492 446,464"/><polygon points="483,477 485,481 480,473"/><polygon points="379,489 369,473 380,450"/><polygon points="369,473 379,489 365,480"/><polygon points="355,499 395,514 352,535"/><polygon points="355,499 379,489 395,514"/><polygon points="379,489 355,499 365,480"/><polygon points="504,521 501,534 479,525"/><polygon points="411,564 412,558 412,559"/><polygon points="409,571 411,564 465,605"/><polygon points="484,561 411,564 412,559"/><polygon points="465,605 411,564 484,561"/><polygon points="532,774 465,779 519,745"/><polygon points="465,779 532,774 478,805"/><polygon points="414,671 424,688 403,673"/><polygon points="437,671 424,688 414,671"/><polygon points="376,726 424,688 409,735"/><polygon points="224,760 231,740 259,744"/><polygon points="231,740 214,737 227,725"/><polygon points="214,737 231,740 224,746"/><polygon points="226,798 224,794 231,797"/><polygon points="224,794 226,798 212,799"/><polygon points="209,788 224,794 212,799"/><polygon points="202,799 209,788 212,799"/><polygon points="209,788 206,779 217,768"/><polygon points="224,794 209,788 217,768"/><polygon points="209,788 202,799 200,780"/><polygon points="214,737 225,722 227,725"/><polygon points="67,190 67,176 74,182"/><polygon points="67,190 61,188 67,176"/><polygon points="122,238 101,245 119,212"/><polygon points="71,157 87,167 67,176"/><polygon points="89,164 71,157 82,150"/><polygon points="71,157 89,164 87,167"/><polygon points="71,157 62,139 82,150"/><polygon points="71,157 61,156 62,139"/><polygon points="110,71 111,80 98,76"/><polygon points="111,80 98,81 98,76"/><polygon points="98,81 111,80 108,85"/><polygon points="91,56 101,70 98,76"/><polygon points="125,134 117,131 121,128"/><polygon points="413,357 408,345 416,361"/><polygon points="365,268 317,281 323,256"/><polygon points="365,268 369,283 317,281"/><polygon points="368,248 365,268 329,243"/><polygon points="310,180 335,170 319,189"/><polygon points="306,177 291,152 300,143"/><polygon points="306,177 300,143 334,161"/><polygon points="357,220 322,228 337,210"/><polygon points="322,228 357,220 329,243"/><polygon points="378,99 377,99 377,96"/><polygon points="367,102 361,110 354,106"/><polygon points="361,110 355,111 354,106"/><polygon points="361,110 361,114 356,114"/><polygon points="355,111 361,110 356,114"/><polygon points="291,152 289,143 300,143"/><polygon points="289,143 291,152 277,156"/><polygon points="285,140 289,143 277,156"/><polygon points="233,133 233,123 248,134"/><polygon points="233,123 246,106 248,134"/><polygon points="229,122 217,103 235,111"/><polygon points="229,122 221,123 217,103"/><polygon points="221,123 229,122 227,137"/><polygon points="483,823 480,824 478,805"/><polygon points="604,600 600,602 604,596"/><polygon points="550,609 582,601 580,620"/><polygon points="582,601 600,602 580,620"/><polygon points="582,601 602,582 604,596"/><polygon points="600,602 582,601 604,596"/><polygon points="613,693 601,708 584,686"/><polygon points="601,708 601,714 584,686"/><polygon points="601,708 613,693 629,698"/><polygon points="601,714 601,708 629,698"/><polygon points="354,499 352,535 350,535"/><polygon points="354,499 355,499 352,535"/><polygon points="464,744 504,722 519,745"/><polygon points="465,779 464,744 519,745"/><polygon points="504,722 464,744 486,713"/><polygon points="427,792 440,774 445,784"/><polygon points="241,797 254,780 250,800"/><polygon points="254,780 241,797 231,797"/><polygon points="224,794 254,780 231,797"/><polygon points="254,780 224,794 254,775"/><polygon points="135,223 122,238 119,212"/><polygon points="136,212 135,223 119,212"/><polygon points="91,253 79,253 80,240"/><polygon points="105,61 91,56 98,54"/><polygon points="105,61 101,70 91,56"/><polygon points="127,41 98,54 96,36"/><polygon points="334,163 335,170 310,180"/><polygon points="334,163 306,177 334,161"/><polygon points="306,177 334,163 310,180"/><polygon points="335,170 340,184 319,189"/><polygon points="319,189 340,184 335,197"/><polygon points="340,184 344,189 335,197"/><polygon points="356,140 344,145 338,125"/><polygon points="504,521 515,521 501,534"/><polygon points="440,774 445,766 445,784"/><polygon points="445,766 460,781 445,784"/><polygon points="101,245 98,246 80,240"/><polygon points="241,241 258,240 243,252"/><polygon points="253,210 258,240 246,216"/><polygon points="344,145 334,139 338,125"/><polygon points="334,139 311,117 338,125"/><polygon points="334,139 300,143 311,117"/><polygon points="334,139 334,144 300,143"/><polygon points="358,130 359,130 356,140"/><polygon points="445,766 463,777 460,781"/><polygon points="463,777 464,744 465,779"/><polygon points="463,777 445,766 464,744"/><polygon points="263,644 252,671 250,670"/><polygon points="276,219 258,240 253,210"/><polygon points="353,146 344,145 356,140"/><polygon points="353,146 351,148 344,145"/><polygon points="334,144 337,152 334,161"/><polygon points="337,152 337,154 334,161"/><polygon points="323,248 326,247 323,256"/><polygon points="326,247 365,268 323,256"/><polygon points="365,268 326,247 329,243"/><polygon points="135,223 127,237 122,238"/><polygon points="258,240 279,222 295,259"/><polygon points="276,219 279,222 258,240"/><polygon points="279,222 315,221 295,259"/><polygon points="258,240 244,220 246,216"/><polygon points="243,222 244,220 258,240"/><polygon points="359,130 358,130 356,114"/><polygon points="361,114 359,130 356,114"/></g><g fill="#000202"><polygon points="715,705 716,703 715,707"/><polygon points="96,26 97,26 96,33"/><polygon points="285,879 270,881 277,880"/><polygon points="106,836 102,839 109,832"/><polygon points="434,396 427,382 439,405"/><polygon points="716,703 715,709 715,707"/><polygon points="262,881 270,881 260,882"/><polygon points="172,722 169,726 170,724"/><polygon points="716,695 716,701 715,698"/><polygon points="715,705 716,701 716,703"/><polygon points="715,698 716,701 715,705"/><polygon points="716,716 715,709 716,703"/><polygon points="716,716 715,718 715,709"/><polygon points="715,718 716,716 716,731"/><polygon points="458,438 456,434 463,447"/><polygon points="385,282 390,293 388,289"/><polygon points="378,83 378,88 377,89"/><polygon points="378,88 378,93 377,89"/><polygon points="213,282 214,282 213,295"/><polygon points="529,822 519,822 528,821"/><polygon points="532,821 529,822 528,821"/><polygon points="378,93 378,99 377,96"/><polygon points="562,820 572,820 559,821"/><polygon points="318,863 320,860 322,858"/><polygon points="377,823 385,822 387,823"/><polygon points="397,822 397,823 387,823"/><polygon points="385,822 397,822 387,823"/><polygon points="377,99 378,99 378,103"/><polygon points="355,207 356,216 355,212"/><polygon points="325,830 325,838 324,833"/><polygon points="353,147 353,146 356,140"/><polygon points="351,148 353,146 353,147"/></g><g fill="#134d5a"><polygon points="42,847 25,847 20,842"/><polygon points="172,800 166,776 190,793"/><polygon points="160,669 172,658 165,675"/><polygon points="150,686 170,724 130,703"/><polygon points="150,686 160,669 165,675"/><polygon points="150,686 106,660 142,653"/><polygon points="169,726 157,742 130,703"/><polygon points="364,387 307,388 335,327"/><polygon points="364,387 334,422 307,388"/><polygon points="334,422 364,387 341,430"/><polygon points="230,84 246,81 244,104"/><polygon points="701,760 702,742 708,751"/><polygon points="702,742 701,760 669,760"/><polygon points="285,879 277,880 287,876"/><polygon points="144,639 107,632 108,618"/><polygon points="107,632 144,639 142,653"/><polygon points="168,652 144,639 170,645"/><polygon points="168,652 160,669 142,653"/><polygon points="168,652 172,658 160,669"/><polygon points="138,783 131,786 138,768"/><polygon points="83,592 122,579 108,618"/><polygon points="83,359 71,331 97,352"/><polygon points="235,111 230,84 244,104"/><polygon points="246,106 235,111 244,104"/><polygon points="259,155 218,157 250,146"/><polygon points="701,760 699,764 669,760"/><polygon points="699,764 697,768 669,760"/><polygon points="427,382 396,399 424,378"/><polygon points="396,399 364,387 389,366"/><polygon points="364,387 396,399 395,401"/><polygon points="427,382 434,396 401,405"/><polygon points="279,334 304,325 300,378"/><polygon points="706,726 702,742 705,725"/><polygon points="702,742 711,745 708,751"/><polygon points="532,774 549,806 528,821"/><polygon points="532,774 597,774 565,804"/><polygon points="663,712 702,742 669,760"/><polygon points="702,742 663,712 694,710"/><polygon points="258,573 277,583 243,608"/><polygon points="277,583 258,573 265,563"/><polygon points="172,658 175,680 165,675"/><polygon points="177,713 172,722 150,686"/><polygon points="37,150 32,142 50,140"/><polygon points="83,359 89,375 65,379"/><polygon points="65,407 24,387 65,379"/><polygon points="101,138 82,150 92,116"/><polygon points="101,154 82,150 101,138"/><polygon points="218,157 227,137 250,146"/><polygon points="382,348 364,387 335,327"/><polygon points="364,387 382,348 389,366"/><polygon points="373,301 377,318 335,327"/><polygon points="205,262 221,255 217,282"/><polygon points="263,92 259,131 246,106"/><polygon points="259,74 263,92 246,81"/><polygon points="246,81 263,92 244,104"/><polygon points="263,92 246,106 244,104"/><polygon points="248,134 253,138 250,146"/><polygon points="288,44 279,64 276,48"/><polygon points="706,726 713,735 702,742"/><polygon points="711,745 713,735 716,733"/><polygon points="713,735 711,745 702,742"/><polygon points="299,874 291,878 287,876"/><polygon points="554,803 532,774 565,804"/><polygon points="532,774 554,803 549,806"/><polygon points="434,396 436,401 401,405"/><polygon points="436,401 418,426 401,405"/><polygon points="418,426 436,401 439,405"/><polygon points="364,387 381,431 341,430"/><polygon points="381,431 348,438 341,430"/><polygon points="130,593 144,639 108,618"/><polygon points="122,579 130,593 108,618"/><polygon points="303,504 333,487 350,535"/><polygon points="291,559 277,583 265,563"/><polygon points="291,559 303,504 350,535"/><polygon points="277,583 291,559 310,599"/><polygon points="175,680 187,711 177,713"/><polygon points="372,584 321,636 310,599"/><polygon points="402,583 397,597 372,584"/><polygon points="366,699 364,706 356,696"/><polygon points="187,711 223,713 190,720"/><polygon points="54,261 58,256 67,257"/><polygon points="56,334 61,314 71,331"/><polygon points="51,366 83,359 65,379"/><polygon points="57,335 71,331 83,359"/><polygon points="57,335 56,334 71,331"/><polygon points="51,366 57,335 83,359"/><polygon points="65,407 36,445 38,422"/><polygon points="57,113 58,83 92,116"/><polygon points="23,106 31,83 33,108"/><polygon points="67,176 53,177 54,173"/><polygon points="101,120 101,138 92,116"/><polygon points="143,132 138,124 143,122"/><polygon points="127,165 132,163 133,171"/><polygon points="233,133 248,134 250,146"/><polygon points="227,137 233,133 250,146"/><polygon points="217,138 211,143 205,132"/><polygon points="377,318 379,328 335,327"/><polygon points="292,289 301,317 272,317"/><polygon points="301,317 279,334 272,317"/><polygon points="279,334 301,317 304,325"/><polygon points="270,314 292,289 272,317"/><polygon points="291,120 263,92 276,91"/><polygon points="259,131 253,135 248,134"/><polygon points="253,135 253,138 248,134"/><polygon points="264,44 262,28 276,48"/><polygon points="285,19 288,44 276,48"/><polygon points="263,92 271,82 276,91"/><polygon points="271,82 263,92 259,74"/><polygon points="213,282 193,283 205,262"/><polygon points="645,731 663,712 669,760"/><polygon points="667,763 645,731 669,760"/><polygon points="629,738 645,731 667,763"/><polygon points="532,774 587,744 597,774"/><polygon points="541,716 587,744 532,774"/><polygon points="635,792 617,741 629,738"/><polygon points="388,421 364,387 395,401"/><polygon points="388,421 381,431 364,387"/><polygon points="463,447 472,461 446,464"/><polygon points="472,461 480,473 446,464"/><polygon points="479,525 491,488 493,492"/><polygon points="423,491 380,450 418,426"/><polygon points="520,670 509,688 503,674"/><polygon points="372,584 373,638 321,636"/><polygon points="414,671 391,631 444,655"/><polygon points="418,527 395,514 421,503"/><polygon points="456,434 442,431 439,405"/><polygon points="442,431 456,434 441,435"/><polygon points="442,431 418,426 439,405"/><polygon points="456,434 458,438 441,435"/><polygon points="458,438 463,447 446,464"/><polygon points="441,435 458,438 446,464"/><polygon points="350,481 357,462 365,480"/><polygon points="328,474 357,452 357,462"/><polygon points="291,559 280,539 303,504"/><polygon points="280,539 291,559 265,563"/><polygon points="332,574 372,584 310,599"/><polygon points="291,559 332,574 310,599"/><polygon points="339,799 328,755 348,760"/><polygon points="381,743 382,739 384,740"/><polygon points="280,643 277,583 310,599"/><polygon points="224,760 217,768 219,754"/><polygon points="200,780 202,799 190,793"/><polygon points="223,713 198,735 190,720"/><polygon points="141,788 154,773 147,795"/><polygon points="154,773 154,798 147,795"/><polygon points="48,244 47,253 46,257"/><polygon points="58,256 61,246 67,257"/><polygon points="61,246 72,255 67,257"/><polygon points="193,283 193,263 205,262"/><polygon points="68,314 78,315 71,331"/><polygon points="29,121 27,113 33,108"/><polygon points="96,36 98,54 88,39"/><polygon points="98,81 102,98 58,83"/><polygon points="191,198 199,186 207,215"/><polygon points="120,154 132,163 127,165"/><polygon points="215,152 211,143 217,138"/><polygon points="215,152 217,138 227,137"/><polygon points="154,138 143,132 143,122"/><polygon points="154,138 140,141 143,132"/><polygon points="140,141 125,134 143,132"/><polygon points="382,341 382,348 335,327"/><polygon points="379,328 382,341 335,327"/><polygon points="301,317 304,323 304,325"/><polygon points="270,314 267,267 292,289"/><polygon points="286,172 259,155 277,156"/><polygon points="286,172 270,195 259,155"/><polygon points="259,155 230,189 218,157"/><polygon points="270,195 230,189 259,155"/><polygon points="378,83 377,89 354,88"/><polygon points="378,80 378,83 370,71"/><polygon points="377,95 378,93 377,96"/><polygon points="306,99 330,84 325,105"/><polygon points="325,105 354,106 339,118"/><polygon points="330,84 354,106 325,105"/><polygon points="263,92 270,134 259,131"/><polygon points="291,120 270,134 263,92"/><polygon points="259,155 270,134 277,156"/><polygon points="355,207 337,210 353,198"/><polygon points="355,207 355,212 337,210"/><polygon points="251,43 260,44 259,74"/><polygon points="260,44 271,66 259,74"/><polygon points="271,66 260,44 264,44"/><polygon points="279,64 271,66 276,48"/><polygon points="271,66 264,44 276,48"/><polygon points="303,54 286,69 288,44"/><polygon points="303,54 307,69 301,66"/><polygon points="301,66 307,69 304,82"/><polygon points="307,69 330,84 304,82"/><polygon points="302,29 304,37 288,44"/><polygon points="304,37 303,54 288,44"/><polygon points="214,282 205,262 217,282"/><polygon points="214,282 213,282 205,262"/><polygon points="193,263 176,276 181,263"/><polygon points="320,860 323,854 322,858"/><polygon points="469,850 475,852 451,858"/><polygon points="560,661 596,658 584,686"/><polygon points="596,658 606,655 605,669"/><polygon points="550,664 555,632 560,661"/><polygon points="541,716 550,664 584,686"/><polygon points="560,661 572,636 573,636"/><polygon points="555,632 572,636 560,661"/><polygon points="572,636 580,620 573,636"/><polygon points="613,693 620,692 629,698"/><polygon points="423,491 379,489 380,450"/><polygon points="365,447 357,452 350,441"/><polygon points="348,438 365,447 350,441"/><polygon points="381,431 365,447 348,438"/><polygon points="398,609 397,597 402,583"/><polygon points="383,650 391,631 414,671"/><polygon points="391,631 383,650 373,638"/><polygon points="409,571 402,583 372,584"/><polygon points="412,558 395,514 418,527"/><polygon points="395,514 412,558 352,535"/><polygon points="412,558 372,584 352,535"/><polygon points="114,807 116,821 114,824"/><polygon points="122,809 116,821 114,807"/><polygon points="124,805 114,807 131,786"/><polygon points="374,745 369,761 368,737"/><polygon points="445,784 458,787 425,806"/><polygon points="409,735 438,728 434,748"/><polygon points="455,688 494,707 486,713"/><polygon points="509,688 494,707 503,674"/><polygon points="367,734 376,726 368,737"/><polygon points="376,726 382,739 368,737"/><polygon points="376,726 367,734 365,724"/><polygon points="364,706 376,726 365,724"/><polygon points="376,726 364,706 366,699"/><polygon points="217,768 216,752 219,754"/><polygon points="214,737 198,735 223,713"/><polygon points="198,735 214,737 199,737"/><polygon points="214,737 216,752 198,745"/><polygon points="82,580 82,578 122,579"/><polygon points="81,570 81,565 122,579"/><polygon points="67,176 61,188 53,177"/><polygon points="61,246 78,241 72,255"/><polygon points="68,314 81,310 78,315"/><polygon points="61,314 66,314 71,331"/><polygon points="66,314 68,314 71,331"/><polygon points="45,92 45,73 58,83"/><polygon points="60,160 67,176 54,173"/><polygon points="98,54 91,56 88,39"/><polygon points="167,123 173,111 178,114"/><polygon points="418,365 410,370 416,361"/><polygon points="410,370 413,357 416,361"/><polygon points="420,369 410,370 418,365"/><polygon points="410,370 420,369 424,378"/><polygon points="267,267 286,270 292,289"/><polygon points="335,197 344,189 353,198"/><polygon points="310,180 319,189 318,189"/><polygon points="315,221 294,204 306,202"/><polygon points="294,204 315,221 292,205"/><polygon points="355,111 356,114 339,118"/><polygon points="354,106 355,111 339,118"/><polygon points="367,102 377,95 377,96"/><polygon points="377,95 367,102 377,89"/><polygon points="285,140 270,134 291,120"/><polygon points="221,123 211,108 217,103"/><polygon points="446,849 441,856 429,857"/><polygon points="426,856 447,844 429,857"/><polygon points="426,856 423,855 447,844"/><polygon points="320,860 318,863 313,866"/><polygon points="385,822 377,823 388,780"/><polygon points="377,823 370,822 388,780"/><polygon points="417,810 415,805 425,806"/><polygon points="397,822 385,822 388,780"/><polygon points="417,810 397,822 415,805"/><polygon points="397,822 417,810 397,823"/><polygon points="603,643 606,655 596,658"/><polygon points="580,620 599,635 573,636"/><polygon points="485,481 491,488 479,525"/><polygon points="480,473 485,481 446,464"/><polygon points="369,473 366,459 380,450"/><polygon points="357,462 369,473 365,480"/><polygon points="366,459 369,473 357,462"/><polygon points="355,499 350,481 365,480"/><polygon points="423,492 398,500 423,491"/><polygon points="398,500 379,489 423,491"/><polygon points="379,489 398,500 395,514"/><polygon points="395,514 398,500 421,503"/><polygon points="398,500 423,492 421,503"/><polygon points="510,654 520,670 503,674"/><polygon points="510,654 550,609 555,632"/><polygon points="510,654 555,632 536,664"/><polygon points="520,670 510,654 536,664"/><polygon points="504,521 479,525 493,492"/><polygon points="411,564 409,571 372,584"/><polygon points="412,558 411,564 372,584"/><polygon points="123,807 122,809 114,807"/><polygon points="124,805 123,807 114,807"/><polygon points="458,787 465,779 478,805"/><polygon points="415,805 414,798 425,806"/><polygon points="414,798 427,792 425,806"/><polygon points="427,792 414,798 388,780"/><polygon points="414,798 397,822 388,780"/><polygon points="397,822 414,798 415,805"/><polygon points="431,750 427,792 388,780"/><polygon points="409,735 431,750 388,780"/><polygon points="431,750 409,735 434,748"/><polygon points="424,688 438,728 409,735"/><polygon points="231,740 242,710 259,744"/><polygon points="242,710 231,740 227,725"/><polygon points="224,746 231,740 224,760"/><polygon points="206,779 209,788 200,780"/><polygon points="225,722 214,737 223,713"/><polygon points="75,544 75,545 73,542"/><polygon points="61,188 67,190 65,193"/><polygon points="37,79 45,92 43,93"/><polygon points="128,203 136,212 119,212"/><polygon points="79,203 101,245 80,240"/><polygon points="119,212 101,245 79,203"/><polygon points="60,160 71,157 67,176"/><polygon points="71,157 60,160 61,156"/><polygon points="101,70 110,71 98,76"/><polygon points="163,117 173,111 167,123"/><polygon points="161,95 163,117 143,122"/><polygon points="163,117 154,138 143,122"/><polygon points="117,131 124,137 101,138"/><polygon points="101,120 117,131 101,138"/><polygon points="124,137 117,131 125,134"/><polygon points="403,327 398,314 397,310"/><polygon points="410,370 401,368 413,357"/><polygon points="289,266 286,270 267,267"/><polygon points="234,248 241,241 243,252"/><polygon points="242,270 249,257 267,267"/><polygon points="351,189 344,189 348,181"/><polygon points="348,180 351,189 348,181"/><polygon points="291,152 306,177 286,172"/><polygon points="337,210 319,208 335,197"/><polygon points="319,208 319,189 335,197"/><polygon points="322,228 319,208 337,210"/><polygon points="319,208 322,228 315,221"/><polygon points="377,99 367,102 377,96"/><polygon points="374,111 370,107 378,103"/><polygon points="300,143 289,143 291,120"/><polygon points="289,143 285,140 291,120"/><polygon points="357,220 356,216 355,207"/><polygon points="355,212 356,216 337,210"/><polygon points="356,216 357,220 337,210"/><polygon points="211,108 207,126 202,124"/><polygon points="221,123 207,126 211,108"/><polygon points="202,124 207,126 205,132"/><polygon points="207,126 217,138 205,132"/><polygon points="207,126 221,123 217,138"/><polygon points="233,123 235,111 246,106"/><polygon points="229,122 233,133 227,137"/><polygon points="325,838 325,842 323,844"/><polygon points="604,604 600,602 604,600"/><polygon points="580,620 600,602 604,608"/><polygon points="600,602 604,604 604,608"/><polygon points="606,612 580,620 604,608"/><polygon points="606,612 599,635 580,620"/><polygon points="333,487 354,499 350,535"/><polygon points="350,481 354,499 333,487"/><polygon points="355,499 354,499 350,481"/><polygon points="670,625 669,622 672,628"/><polygon points="501,534 519,526 529,534"/><polygon points="460,781 458,787 445,784"/><polygon points="277,583 261,635 243,608"/><polygon points="280,643 261,635 277,583"/><polygon points="157,196 163,196 166,224"/><polygon points="105,61 128,42 110,71"/><polygon points="101,70 105,61 110,71"/><polygon points="127,41 105,61 98,54"/><polygon points="105,61 127,41 128,42"/><polygon points="379,270 365,268 368,248"/><polygon points="291,263 289,266 267,267"/><polygon points="221,255 232,275 217,282"/><polygon points="249,257 241,262 243,252"/><polygon points="241,262 234,248 243,252"/><polygon points="234,248 241,262 221,255"/><polygon points="344,189 352,193 353,198"/><polygon points="351,189 352,193 344,189"/><polygon points="334,163 334,161 340,164"/><polygon points="335,170 334,163 340,164"/><polygon points="343,168 335,170 340,164"/><polygon points="340,184 348,180 348,181"/><polygon points="344,189 340,184 348,181"/><polygon points="340,184 343,168 348,180"/><polygon points="343,168 340,184 335,170"/><polygon points="358,130 356,140 338,125"/><polygon points="339,118 358,130 338,125"/><polygon points="356,114 358,130 339,118"/><polygon points="315,221 321,234 295,259"/><polygon points="368,103 377,99 378,103"/><polygon points="515,521 519,526 501,534"/><polygon points="515,521 504,521 493,492"/><polygon points="556,526 560,528 548,525"/><polygon points="464,744 456,735 486,713"/><polygon points="263,644 261,635 280,643"/><polygon points="98,246 91,253 80,240"/><polygon points="380,273 379,270 383,277"/><polygon points="233,194 253,210 246,216"/><polygon points="233,194 266,201 253,210"/><polygon points="233,194 230,189 270,195"/><polygon points="266,201 233,194 270,195"/><polygon points="291,263 258,240 295,259"/><polygon points="258,240 291,263 267,267"/><polygon points="249,257 258,240 267,267"/><polygon points="258,240 249,257 243,252"/><polygon points="241,263 241,262 249,257"/><polygon points="241,263 232,275 221,255"/><polygon points="241,262 241,263 221,255"/><polygon points="334,161 337,154 340,164"/><polygon points="323,248 321,234 329,243"/><polygon points="323,248 323,256 295,259"/><polygon points="321,234 323,248 295,259"/><polygon points="460,781 463,777 465,779"/><polygon points="445,766 438,757 464,744"/><polygon points="438,757 456,735 464,744"/><polygon points="252,671 263,644 262,681"/><polygon points="266,201 276,219 253,210"/><polygon points="243,222 258,240 241,241"/><polygon points="326,247 323,248 329,243"/><polygon points="315,221 284,215 292,205"/><polygon points="279,222 284,215 315,221"/><polygon points="244,220 233,194 246,216"/></g><g fill="#afd3d8"><polygon points="95,456 127,424 114,515"/><polygon points="36,59 30,67 24,65"/><polygon points="42,57 52,52 47,59"/><polygon points="52,52 58,60 47,59"/><polygon points="58,60 52,52 59,50"/><polygon points="269,851 236,872 234,869"/><polygon points="236,872 269,851 242,877"/><polygon points="269,851 270,881 259,879"/><polygon points="334,422 301,398 307,388"/><polygon points="72,496 51,485 95,456"/><polygon points="51,485 46,470 95,456"/><polygon points="36,59 38,63 30,67"/><polygon points="38,63 42,57 47,59"/><polygon points="38,63 36,59 42,57"/><polygon points="217,24 233,31 210,55"/><polygon points="269,851 286,854 277,880"/><polygon points="174,567 126,567 125,562"/><polygon points="174,567 162,582 126,567"/><polygon points="183,744 200,780 166,776"/><polygon points="163,745 161,769 157,742"/><polygon points="161,769 183,744 166,776"/><polygon points="119,547 125,538 125,562"/><polygon points="119,547 118,540 125,538"/><polygon points="95,456 92,444 127,424"/><polygon points="92,444 84,395 127,424"/><polygon points="88,802 99,748 131,786"/><polygon points="157,742 99,748 130,703"/><polygon points="341,741 368,737 348,760"/><polygon points="341,741 334,729 346,731"/><polygon points="144,771 138,783 138,768"/><polygon points="118,540 112,544 114,515"/><polygon points="36,455 36,445 40,458"/><polygon points="77,42 79,54 59,50"/><polygon points="79,54 58,60 59,50"/><polygon points="217,24 223,24 233,31"/><polygon points="223,24 227,25 233,31"/><polygon points="654,630 643,615 652,616"/><polygon points="644,636 643,615 654,630"/><polygon points="658,621 652,616 660,617"/><polygon points="658,621 654,630 652,616"/><polygon points="328,474 303,504 272,461"/><polygon points="303,504 290,508 272,461"/><polygon points="366,699 372,684 403,673"/><polygon points="368,737 369,761 348,760"/><polygon points="324,732 328,755 316,743"/><polygon points="206,779 198,745 217,768"/><polygon points="112,544 91,513 114,515"/><polygon points="34,451 36,445 36,455"/><polygon points="102,333 100,349 97,352"/><polygon points="199,186 230,189 207,215"/><polygon points="157,252 166,224 176,259"/><polygon points="168,76 196,79 183,88"/><polygon points="283,821 306,842 298,846"/><polygon points="292,848 283,821 298,846"/><polygon points="373,638 383,650 367,673"/><polygon points="458,787 455,839 425,806"/><polygon points="376,726 366,699 403,673"/><polygon points="291,732 324,732 316,743"/><polygon points="195,745 198,745 200,780"/><polygon points="281,775 254,775 259,744"/><polygon points="132,319 127,322 131,319"/><polygon points="164,138 167,123 202,124"/><polygon points="167,123 178,114 202,124"/><polygon points="181,182 163,196 149,169"/><polygon points="181,182 183,175 199,186"/><polygon points="174,275 168,284 153,285"/><polygon points="414,849 417,810 447,844"/><polygon points="611,648 603,643 604,642"/><polygon points="603,643 611,648 606,655"/><polygon points="622,640 637,614 644,636"/><polygon points="650,644 622,640 644,636"/><polygon points="599,635 622,640 604,642"/><polygon points="663,623 670,625 672,628"/><polygon points="269,520 241,524 232,515"/><polygon points="291,732 314,666 324,732"/><polygon points="234,248 221,255 214,231"/><polygon points="306,842 325,838 323,844"/><polygon points="324,833 325,838 306,842"/><polygon points="325,830 324,833 306,842"/><polygon points="309,810 325,830 306,842"/><polygon points="599,635 606,612 616,612"/><polygon points="669,622 663,623 666,619"/><polygon points="135,316 132,319 131,319"/><polygon points="239,311 234,284 270,314"/><polygon points="240,312 239,311 270,314"/><polygon points="144,181 157,196 128,203"/><polygon points="157,196 136,212 128,203"/><polygon points="163,196 157,196 149,169"/><polygon points="136,212 157,196 166,224"/><polygon points="306,665 314,666 291,732"/><polygon points="262,681 306,665 291,732"/><polygon points="182,296 168,296 168,284"/><polygon points="254,324 232,325 240,312"/><polygon points="232,325 239,311 240,312"/></g></g></svg>