<svg xmlns="http://www.w3.org/2000/svg" viewBox="37 64 658 476">
<style>
  .word { font-family:'Poppins',sans-serif; font-weight:700; font-size:150px; letter-spacing:-4px; }
  .sub  { font-family:'Poppins',sans-serif; font-weight:400; font-size:30px; letter-spacing:8px; }
</style>
<g transform="translate(71.9 85.0) scale(0.3266)"><g stroke="#0e2c38" stroke-width="1" stroke-linejoin="round"><polygon points="594,706 702,672 712,705" fill="#1a727f"/><polygon points="699,754 594,706 712,705" fill="#114854"/><polygon points="229,863 228,847 262,878" fill="#bdd9dd"/><polygon points="710,675 702,672 686,646" fill="#a4c3c8"/><polygon points="702,672 710,675 712,705" fill="#1d7d8b"/><polygon points="702,672 600,676 686,646" fill="#5aa2ac"/><polygon points="594,706 600,676 702,672" fill="#176875"/><polygon points="53,309 44,186 81,185" fill="#2e8693"/><polygon points="398,581 269,546 302,486" fill="#104450"/><polygon points="269,546 398,581 303,662" fill="#15505d"/><polygon points="246,624 269,546 303,662" fill="#2b5e6a"/><polygon points="600,676 567,592 686,646" fill="#6b9da5"/><polygon points="630,775 699,754 664,782" fill="#0a2e38"/><polygon points="630,775 594,706 699,754" fill="#103e49"/><polygon points="630,775 610,769 594,706" fill="#5bafbc"/><polygon points="594,706 557,803 462,674" fill="#134753"/><polygon points="557,803 473,808 462,674" fill="#0c343e"/><polygon points="610,769 557,803 594,706" fill="#377d8b"/><polygon points="630,775 557,803 610,769" fill="#3b7f8b"/><polygon points="41,130 44,186 14,64" fill="#1d555e"/><polygon points="44,186 47,150 81,185" fill="#184b55"/><polygon points="47,150 41,130 49,137" fill="#061a21"/><polygon points="126,352 129,434 18,388" fill="#8eb9c0"/><polygon points="129,434 106,467 18,388" fill="#acd1d6"/><polygon points="106,467 53,501 18,388" fill="#aecfd4"/><polygon points="296,338 450,428 332,440" fill="#194e5a"/><polygon points="450,428 296,338 375,266" fill="#154f5c"/><polygon points="265,397 296,338 332,440" fill="#739ea6"/><polygon points="296,338 265,397 281,344" fill="#5599a5"/><polygon points="193,259 53,309 81,185" fill="#448b96"/><polygon points="53,309 193,259 126,352" fill="#7fbac2"/><polygon points="57,827 62,840 18,821" fill="#72b7c2"/><polygon points="57,827 101,834 62,840" fill="#57abb8"/><polygon points="101,834 57,827 102,832" fill="#54a9b6"/><polygon points="57,827 118,806 102,832" fill="#4d9ca9"/><polygon points="118,806 57,827 70,755" fill="#a2d1d8"/><polygon points="228,847 291,836 262,878" fill="#d4eaed"/><polygon points="385,714 287,764 303,662" fill="#71b1bb"/><polygon points="385,714 398,581 462,674" fill="#2a535c"/><polygon points="398,581 385,714 303,662" fill="#639aa4"/><polygon points="404,519 302,486 332,440" fill="#37616b"/><polygon points="404,519 398,581 302,486" fill="#104653"/><polygon points="131,714 103,611 161,586" fill="#1e5864"/><polygon points="287,764 246,648 303,662" fill="#a3c9cf"/><polygon points="246,648 246,624 303,662" fill="#336f7a"/><polygon points="196,67 329,45 200,124" fill="#1b616e"/><polygon points="329,45 196,67 273,10" fill="#29727f"/><polygon points="329,45 339,126 200,124" fill="#11434e"/><polygon points="339,126 374,92 374,109" fill="#0a282f"/><polygon points="374,92 339,126 373,79" fill="#12424d"/><polygon points="339,126 329,45 373,79" fill="#1f6572"/><polygon points="567,592 591,553 686,646" fill="#3e5a5f"/><polygon points="557,643 567,592 600,676" fill="#0b323c"/><polygon points="557,643 594,706 462,674" fill="#1f5a66"/><polygon points="557,643 600,676 594,706" fill="#0a2a33"/><polygon points="398,581 472,612 462,674" fill="#1c5762"/><polygon points="472,612 557,643 462,674" fill="#3d8c99"/><polygon points="557,643 472,612 567,592" fill="#377d8a"/><polygon points="404,519 472,612 398,581" fill="#0c353f"/><polygon points="557,803 546,816 473,808" fill="#0a2e37"/><polygon points="468,849 546,816 664,782" fill="#0b1f24"/><polygon points="546,816 630,775 664,782" fill="#2a5e67"/><polygon points="546,816 557,803 630,775" fill="#173f49"/><polygon points="216,20 196,67 187,17" fill="#e8f4f5"/><polygon points="196,67 216,20 273,10" fill="#5f9da6"/><polygon points="196,67 110,25 187,17" fill="#badbe0"/><polygon points="98,158 47,150 49,137" fill="#0a272f"/><polygon points="98,158 105,161 81,185" fill="#1c7e8c"/><polygon points="47,150 98,158 81,185" fill="#326772"/><polygon points="269,546 232,535 302,486" fill="#6eb7c2"/><polygon points="103,611 103,525 161,586" fill="#659da7"/><polygon points="103,525 103,611 79,598" fill="#256e7b"/><polygon points="193,259 177,358 126,352" fill="#c8e2e6"/><polygon points="265,397 177,358 281,344" fill="#c2e2e7"/><polygon points="177,358 129,434 126,352" fill="#eaf6f7"/><polygon points="105,161 175,193 81,185" fill="#479aa5"/><polygon points="175,193 193,259 81,185" fill="#5d8c94"/><polygon points="175,193 200,186 193,259" fill="#20535e"/><polygon points="200,186 175,193 200,124" fill="#c0dee2"/><polygon points="339,126 304,202 200,124" fill="#10444f"/><polygon points="304,202 200,186 200,124" fill="#50848e"/><polygon points="53,309 38,306 44,186" fill="#20626c"/><polygon points="32,322 38,306 53,309" fill="#5aaebb"/><polygon points="26,347 126,352 18,388" fill="#2b7784"/><polygon points="26,347 53,309 126,352" fill="#357e8b"/><polygon points="26,347 32,322 53,309" fill="#5bafbc"/><polygon points="19,818 57,827 18,821" fill="#badde2"/><polygon points="57,827 19,818 70,755" fill="#98acaf"/><polygon points="103,611 81,616 79,598" fill="#1b7c8a"/><polygon points="131,714 81,616 103,611" fill="#91c1c8"/><polygon points="81,616 131,714 73,740" fill="#acc8cc"/><polygon points="246,806 291,836 228,847" fill="#e4f2f3"/><polygon points="291,836 246,806 287,764" fill="#e9f5f6"/><polygon points="546,816 473,810 473,808" fill="#0a2b35"/><polygon points="123,792 178,795 118,806" fill="#010608"/><polygon points="123,792 118,806 70,755" fill="#86b6be"/><polygon points="473,808 442,796 462,674" fill="#164f5b"/><polygon points="442,796 385,714 462,674" fill="#1d616e"/><polygon points="473,810 442,796 473,808" fill="#42919d"/><polygon points="442,796 473,810 468,849" fill="#9ecdd3"/><polygon points="450,428 407,462 332,440" fill="#164753"/><polygon points="407,462 404,519 332,440" fill="#1b4c58"/><polygon points="473,465 407,462 450,428" fill="#0e404d"/><polygon points="404,519 407,462 473,465" fill="#0d3844"/><polygon points="131,714 106,744 73,740" fill="#e7f4f6"/><polygon points="73,740 106,744 70,755" fill="#daeef0"/><polygon points="123,792 106,744 134,761" fill="#499dab"/><polygon points="106,744 123,792 70,755" fill="#a9d4da"/><polygon points="165,723 246,648 287,764" fill="#36727d"/><polygon points="246,806 165,723 287,764" fill="#54747a"/><polygon points="131,714 165,723 134,761" fill="#1a5c6a"/><polygon points="165,723 131,714 161,586" fill="#1d5f6c"/><polygon points="246,648 229,609 246,624" fill="#4ba1ae"/><polygon points="229,609 165,723 161,586" fill="#54a2af"/><polygon points="165,723 229,609 246,648" fill="#4393a0"/><polygon points="246,624 229,609 269,546" fill="#175967"/><polygon points="229,609 232,535 269,546" fill="#5eb1bd"/><polygon points="560,526 567,592 551,522" fill="#55aab7"/><polygon points="560,526 591,553 567,592" fill="#439caa"/><polygon points="567,592 516,524 551,522" fill="#479dab"/><polygon points="472,612 516,524 567,592" fill="#4ea3b0"/><polygon points="516,524 473,465 551,522" fill="#031013"/><polygon points="516,524 404,519 473,465" fill="#0c3843"/><polygon points="516,524 472,612 404,519" fill="#13414c"/><polygon points="41,130 28,86 49,137" fill="#176774"/><polygon points="28,86 41,130 14,64" fill="#4d909a"/><polygon points="28,86 89,28 49,137" fill="#337b87"/><polygon points="89,28 28,86 14,64" fill="#88bcc4"/><polygon points="238,429 232,535 129,434" fill="#aed8de"/><polygon points="177,358 238,429 129,434" fill="#e9f5f6"/><polygon points="238,429 177,358 265,397" fill="#e8f5f6"/><polygon points="232,535 238,429 302,486" fill="#afd8de"/><polygon points="302,486 238,429 332,440" fill="#cfe7ea"/><polygon points="238,429 265,397 332,440" fill="#92c6cd"/><polygon points="108,503 53,501 106,467" fill="#b5d8dd"/><polygon points="129,434 108,503 106,467" fill="#d3eaed"/><polygon points="232,535 108,503 129,434" fill="#cce7ea"/><polygon points="175,193 134,140 200,124" fill="#cde6ea"/><polygon points="134,140 175,193 105,161" fill="#6fb0ba"/><polygon points="134,140 196,67 200,124" fill="#6ea3ab"/><polygon points="98,158 134,140 105,161" fill="#449ba8"/><polygon points="134,140 110,25 196,67" fill="#4d95a1"/><polygon points="134,140 89,28 110,25" fill="#1f6471"/><polygon points="134,140 98,158 49,137" fill="#265f6a"/><polygon points="89,28 134,140 49,137" fill="#114752"/><polygon points="311,206 339,126 354,224" fill="#0d3943"/><polygon points="311,206 304,202 339,126" fill="#124d58"/><polygon points="200,186 252,278 193,259" fill="#619ca7"/><polygon points="304,202 252,278 200,186" fill="#436e78"/><polygon points="252,278 296,338 281,344" fill="#195462"/><polygon points="311,206 252,278 304,202" fill="#104652"/><polygon points="177,358 252,278 281,344" fill="#b7dce2"/><polygon points="252,278 177,358 193,259" fill="#81b6be"/><polygon points="252,278 311,206 354,224" fill="#104551"/><polygon points="252,278 354,224 375,266" fill="#104955"/><polygon points="296,338 252,278 375,266" fill="#0f434f"/><polygon points="473,810 477,841 468,849" fill="#57abb8"/><polygon points="477,841 473,810 546,816" fill="#061519"/><polygon points="385,714 324,797 287,764" fill="#53949f"/><polygon points="442,796 324,797 385,714" fill="#23525c"/><polygon points="324,797 291,836 287,764" fill="#a6d3d9"/><polygon points="115,744 131,714 134,761" fill="#a7d3da"/><polygon points="106,744 115,744 134,761" fill="#5fb1be"/><polygon points="115,744 106,744 131,714" fill="#e7f4f5"/><polygon points="166,772 246,806 178,795" fill="#193d44"/><polygon points="166,772 165,723 246,806" fill="#678e95"/><polygon points="165,723 166,772 134,761" fill="#9ab1b4"/><polygon points="166,772 123,792 134,761" fill="#5e8d95"/><polygon points="123,792 166,772 178,795" fill="#143b44"/><polygon points="108,503 100,521 53,501" fill="#9ac7ce"/><polygon points="100,521 108,503 103,525" fill="#e9f5f6"/><polygon points="53,501 100,521 79,598" fill="#21626d"/><polygon points="100,521 103,525 79,598" fill="#50909c"/><polygon points="170,560 108,503 232,535" fill="#a1d2d9"/><polygon points="170,560 229,609 161,586" fill="#72b9c4"/><polygon points="229,609 170,560 232,535" fill="#5aacb8"/><polygon points="103,525 170,560 161,586" fill="#d4ebee"/><polygon points="108,503 170,560 103,525" fill="#d9edf0"/><polygon points="320,836 442,796 468,849" fill="#73868a"/><polygon points="320,836 324,797 442,796" fill="#0b3039"/><polygon points="324,797 320,836 291,836" fill="#a5d2d8"/><polygon points="291,836 320,836 262,878" fill="#56a2ae"/></g></g>
<text x="60" y="470" class="word" fill="#0b2f39">Vet<tspan fill="#207885">Care</tspan></text>
<text x="385" y="520" class="sub" fill="#134d5a" text-anchor="middle">VETERINARY SOFTWARE</text>
</svg>